<svg xmlns="http://www.w3.org/2000/svg" viewBox="0 0 1024 1024" fill="currentColor">
  <path class="cls-1" d="m906.31,522.47c-1.18,8.95-2.86,17.85-5.06,26.67-8.25,33.07-20.69,64.49-36.64,93.73l-76.86-223.96h-102.1l29.47,82.04h-58.62l-142.27-392.73-240.06,662.66c-16.98-12.84-32.9-26.99-47.61-42.32l77.13-206.09h-88.96l-47.98,125.65c-28.3-50.1-46.12-106.87-50.36-167.35H51.94c10.84,179.95,124.89,332.51,283.6,399.13l21.22-56.54.11.06,1.25-3.67.16-.07s-.08-.04-.12-.06l84.06-247.41h144.02l84.06,247.4c-47.96,20.48-100.71,31.85-156.07,31.85-40.86,0-80.3-6.18-117.45-17.65l-19.87,61.18c43.4,13.5,89.52,20.78,137.31,20.78,97.4,0,187.86-30.25,262.52-81.81l-19.53-54.54.14-.07-75.03-207.12h58.4l57.51,160.11s-.02.02-.03.03l1.93,5.24,3.88,10.8.06-.09,18.3,49.74c78.6-70.19,133.16-166.74,149.7-275.61h-65.76Zm-348.43-21.52h-91.96l48.31-133.15,48.31,133.15h-4.65Z"/>
</svg>